<svg xmlns="http://www.w3.org/2000/svg" width="106" height="44" fill="none"><path d="M83.1 21.6a9.93 9.93 0 016.8 2.68 9.09 9.09 0 011.96 10.1 9.12 9.12 0 01-5.02 4.9 9.9 9.9 0 01-3.79.72c-1.78 0-3.4-.4-4.86-1.23a8.94 8.94 0 01-4.64-7.97 9.13 9.13 0 015.76-8.46 9.9 9.9 0 013.8-.74zm-46.39.35v10.06a3.9 3.9 0 00.87 2.59c.57.63 1.37.95 2.4.95 1.01 0 1.8-.3 2.39-.92.57-.6.86-1.51.86-2.72v-9.96h4.99v10.16a10.37 10.37 0 01-.58 3.34A6.29 6.29 0 0145.96 38a7.12 7.12 0 01-2.61 1.48c-1.01.32-2.15.49-3.43.49-2.6 0-4.6-.68-6.03-2.02-1.44-1.35-2.15-3.37-2.15-6.08v-9.93h4.97zm-28.02-.3c2.9 0 5.33.79 7.28 2.35l-.16-.13v.35l-2.3 3.25-.24-.17a8.43 8.43 0 00-4.7-1.57c-.58 0-1.02.1-1.32.32a1 1 0 00-.46.86c0 .41.2.73.61.96.4.22 1.22.48 2.45.75 1.09.24 2 .5 2.77.79.75.28 1.43.64 2.04 1.07.6.42 1.05.94 1.35 1.56.3.6.44 1.33.44 2.15 0 1.78-.65 3.19-1.95 4.22-1.3 1.03-3.03 1.54-5.2 1.54-1.6 0-3.12-.25-4.55-.75A10.88 10.88 0 011 37.01l2.74-3.25.23.18a8.93 8.93 0 005.51 1.94c.65 0 1.15-.11 1.5-.33.34-.22.51-.53.51-.94 0-.38-.2-.69-.6-.93-.42-.24-1.2-.49-2.37-.76l-1.56-.39c-.44-.12-.91-.27-1.4-.45a6.7 6.7 0 01-2.27-1.28 3.76 3.76 0 01-1.27-2.05 5.4 5.4 0 01-.18-1.43c0-1.67.62-3.03 1.86-4.09 1.24-1.05 2.9-1.58 4.99-1.58zm22.65.3v4.3h-5.32v13.4h-4.9v-13.4h-5.3v-2.03l.15-.22-.16-.13v-1.92h15.53zm25.09 0h.38c1.4.04 2.68.25 3.84.65a7.93 7.93 0 015.09 4.6c.44 1.07.67 2.26.67 3.55 0 1.27-.23 2.45-.68 3.54a8.14 8.14 0 01-5.14 4.68c-1.28.45-2.7.67-4.26.67H49.6V21.95h6.83zm16.02 0v17.7H67.5v-17.7h4.94zm10.6 4.07c-1.3 0-2.38.46-3.22 1.39a4.86 4.86 0 00-1.26 3.39c0 1.3.43 2.43 1.29 3.36a4.2 4.2 0 003.24 1.41c1.33 0 2.4-.46 3.25-1.39a4.86 4.86 0 001.26-3.38c0-1.31-.43-2.43-1.29-3.37a4.23 4.23 0 00-3.27-1.4zm-26.55.24h-2v9.04h2c1.49 0 2.67-.4 3.55-1.2.88-.78 1.33-1.9 1.33-3.33 0-1.4-.45-2.5-1.33-3.3a5.07 5.07 0 00-3.55-1.21zM104 3.15v17.54H54.85V3.15H104zM6.92 3l7.27 9.35V3h4.87v17.7h-4.3L7.2 11v9.7H2.35V3h4.57zm18.64 0v7.18L31.66 3h5.82l-6.7 7.61 6.82 9.94v.14h-5.79l-4.44-6.56-1.8 1.98v4.58h-4.9V3h4.9zM42.5 3v6.63h6.3V3h4.9v17.7h-4.9v-6.73h-6.3v6.72h-4.8l-.1-.14V3h4.9zm13.75 2.54V19.3H70L56.25 5.54zM72.4 12.2v7.09h6.78L72.4 12.2zm30.2.07H88.55v7.02h14.05v-7.02zM87.14 4.55h-6.02L78.02 7.8v8.24l3.1 3.25h6.03V4.55zM71 4.55H57.24L71 18.3V4.55zm5.61 4.71l-2.54 2.66 2.54 2.65v-5.3zm2.57-4.71H72.4v7.09l6.78-7.1zm23.42 0H88.55v6.32h14.05V4.55z" fill="#fff"/></svg>