<svg xmlns="http://www.w3.org/2000/svg" width="106" height="44" fill="none"><path d="M83.102 21.605c1.341 0 2.602.24 3.783.722 1.181.48 2.19 1.13 3.024 1.949a8.952 8.952 0 011.975 2.924c.482 1.13.722 2.33.722 3.596 0 1.25-.244 2.443-.734 3.578a9.115 9.115 0 01-1.993 2.936c-.84.823-1.852 1.477-3.037 1.962a9.9 9.9 0 01-3.79.728c-1.785 0-3.406-.41-4.863-1.228-1.456-.818-2.594-1.928-3.412-3.33-.82-1.403-1.228-2.951-1.228-4.646 0-1.25.244-2.44.734-3.571a9.134 9.134 0 011.993-2.93c.84-.823 1.852-1.477 3.037-1.962a9.9 9.9 0 013.79-.728zm-46.39.345v9.833l.003.23c.034 1.128.32 1.99.86 2.583.577.634 1.375.95 2.395.95s1.82-.304 2.395-.913c.576-.608.864-1.517.864-2.726V21.95h4.987v9.809l-.004.347c-.03 1.263-.222 2.376-.576 3.341-.387 1.053-.947 1.909-1.68 2.567-.731.658-1.602 1.15-2.61 1.474-1.008.325-2.15.487-3.425.487-2.592 0-4.604-.672-6.036-2.017-1.431-1.345-2.147-3.37-2.147-6.076V21.95h4.974zM8.69 21.654c2.905 0 5.332.782 7.282 2.344l-.16-.124v.349l-2.296 3.242-.248-.17c-1.57-1.046-3.138-1.57-4.702-1.57-.576 0-1.016.11-1.32.327-.305.218-.457.504-.457.858 0 .411.204.73.611.956.407.226 1.224.48 2.45.759 1.086.238 2.008.5 2.765.783.757.284 1.438.64 2.043 1.067.605.428 1.055.948 1.351 1.561.297.613.445 1.33.445 2.153 0 1.785-.65 3.191-1.95 4.22-1.3 1.028-3.037 1.542-5.21 1.542-1.596 0-3.11-.25-4.542-.747-1.431-.497-2.682-1.227-3.752-2.19l2.74-3.257.232.18c1.704 1.295 3.54 1.942 5.508 1.942.65 0 1.148-.109 1.493-.327a1.05 1.05 0 00.519-.944c0-.378-.204-.686-.611-.925-.408-.238-1.195-.493-2.364-.765-.6-.14-1.121-.27-1.561-.388-.44-.12-.908-.27-1.401-.45a8.358 8.358 0 01-1.26-.568 6.696 6.696 0 01-1.012-.716 3.76 3.76 0 01-.79-.906 4.448 4.448 0 01-.475-1.142 5.409 5.409 0 01-.179-1.43c0-1.67.62-3.032 1.858-4.085 1.238-1.052 2.903-1.579 4.993-1.579zm22.651.296v4.306h-5.32v13.386h-4.9V26.256h-5.308v-2.033l.16-.225-.16-.124V21.95h15.528zm25.084 0l.386.005c1.403.033 2.682.247 3.836.643 1.259.432 2.308 1.036 3.147 1.814a7.93 7.93 0 011.938 2.782c.453 1.077.68 2.262.68 3.553 0 1.275-.23 2.455-.686 3.54a8.142 8.142 0 01-1.956 2.82c-.848.794-1.91 1.415-3.185 1.863-1.275.448-2.695.672-4.258.672H49.6V21.95h6.825zm16.023 0v17.692h-4.937V21.95h4.937zm10.605 4.072c-1.309 0-2.382.462-3.222 1.388-.84.925-1.259 2.054-1.259 3.386 0 1.308.428 2.43 1.284 3.368.856.938 1.938 1.407 3.246 1.407 1.325 0 2.407-.463 3.246-1.388.84-.925 1.26-2.054 1.26-3.387 0-1.308-.428-2.43-1.284-3.368-.856-.938-1.946-1.406-3.271-1.406zm-26.553.234h-2V35.3h2c1.489 0 2.674-.396 3.554-1.19.88-.794 1.321-1.906 1.321-3.337 0-1.399-.442-2.5-1.327-3.307-.884-.806-2.067-1.209-3.549-1.209zM104 3.146v17.546H54.847V3.145H104zM6.925 3l7.27 9.352V3h4.863v17.692h-4.295l-7.567-9.697v9.697h-4.85V3h4.579zm18.64 0v7.18L31.662 3h5.814l-6.703 7.612 6.827 9.939v.14h-5.79l-4.443-6.563-1.803 1.987v4.577h-4.9V3h4.9zM42.5 3v6.625h6.295V3h4.913v17.692h-4.913v-6.724H42.5v6.724h-4.803l-.098-.141V3h4.9zm13.75 2.541v13.747h13.753L56.25 5.541zM72.4 12.2v7.088h6.783L72.401 12.2zm30.194.07H88.552v7.018h14.044l-.001-7.018zM87.147 4.549h-6.02L78.02 7.797v8.242l3.109 3.25h6.019V4.548zm-16.15 0H57.244l13.753 13.747V4.549zm5.617 4.716l-2.54 2.654 2.54 2.653V9.265zm2.57-4.716H72.4v7.088l6.782-7.088zm23.412 0H88.551v6.317h14.044l.001-6.317z" fill="#fff"/></svg>